<?xml version="1.0" standalone="no"?>
<!DOCTYPE svg PUBLIC "-//W3C//DTD SVG 20010904//EN"
 "http://www.w3.org/TR/2001/REC-SVG-20010904/DTD/svg10.dtd">
<svg version="1.0" xmlns="http://www.w3.org/2000/svg"
 width="512.000000pt" height="512.000000pt" viewBox="0 0 512.000000 512.000000"
 preserveAspectRatio="xMidYMid meet">
<metadata>
Created by potrace 1.14, written by Peter Selinger 2001-2017
</metadata>
<g transform="translate(0.000000,512.000000) scale(0.100000,-0.100000)"
fill="#000000" stroke="none">
<path d="M0 2560 l0 -2560 1737 0 1737 0 -295 298 c-247 248 -297 304 -307
338 -16 56 -15 97 3 142 22 51 904 937 960 963 51 24 119 24 170 0 27 -13 191
-170 497 -477 413 -415 458 -463 468 -504 15 -57 6 -122 -21 -163 -12 -18
-148 -159 -303 -314 l-281 -283 146 0 c91 0 149 4 156 11 8 8 13 8 17 0 5 -7
78 -11 222 -11 l214 0 0 195 c0 182 -1 195 -18 195 -10 0 -22 3 -25 6 -10 10
12 44 28 44 13 0 15 37 15 248 l0 248 -466 464 c-256 256 -474 482 -485 502
-24 47 -24 121 0 173 13 27 171 192 485 504 l466 465 0 780 0 781 -56 58 c-55
58 -62 81 -29 94 11 3 29 -7 51 -28 l34 -33 0 212 0 212 -941 0 -941 0 216
-216 c118 -119 222 -230 231 -247 9 -18 15 -57 15 -97 0 -56 -4 -73 -29 -111
-39 -59 -897 -912 -941 -935 -37 -19 -124 -24 -175 -11 -21 6 -169 147 -493
470 -254 254 -469 475 -477 491 -9 18 -15 58 -15 103 0 96 10 110 217 315 87
86 176 175 198 197 l39 41 -1012 0 -1011 0 -1 -2560z m3996 1774 c48 -19 945
-909 975 -966 26 -51 25 -136 -2 -185 -26 -48 -878 -905 -938 -944 -38 -24
-55 -29 -108 -29 -44 0 -76 6 -101 19 -56 29 -949 929 -959 966 -4 17 -7 60
-7 97 1 52 7 74 24 98 12 17 222 231 467 475 297 296 458 450 486 464 51 24
111 26 163 5z m-2623 -830 c36 -26 51 -66 45 -119 -6 -51 -7 -50 46 -31 68 24
131 -6 166 -78 21 -44 21 -47 5 -95 -11 -35 -38 -74 -92 -133 -105 -114 -108
-116 -140 -87 -66 62 -363 364 -363 371 0 12 159 162 193 181 39 22 103 18
140 -9z m-1337 -1196 c8 -7 25 -23 37 -36 12 -12 55 -55 94 -95 40 -39 83 -82
95 -95 13 -12 57 -56 98 -97 41 -41 80 -80 85 -85 6 -6 43 -44 84 -84 40 -41
82 -83 93 -94 11 -11 54 -53 95 -95 42 -41 85 -84 97 -96 11 -12 55 -55 96
-96 41 -41 79 -79 84 -84 4 -5 42 -43 83 -84 42 -41 84 -84 95 -95 11 -11 54
-53 95 -95 41 -41 79 -79 84 -83 5 -5 43 -43 84 -84 41 -41 84 -85 96 -96 12
-12 54 -55 95 -95 40 -41 84 -84 96 -97 13 -12 55 -55 95 -95 40 -39 77 -76
83 -82 5 -5 44 -44 85 -85 41 -41 84 -85 96 -96 12 -12 54 -55 95 -95 40 -41
84 -84 96 -96 35 -34 50 -54 45 -59 -4 -5 -2307 2292 -2307 2302 0 8 11 4 26
-8z m2679 -97 c53 -24 137 -106 166 -162 31 -61 31 -151 0 -212 -12 -24 -60
-81 -106 -127 l-83 -82 -198 197 -198 198 89 83 c49 46 107 93 129 104 53 26
146 27 201 1z m2332 -1875 c-9 -23 -37 -20 -37 3 0 21 20 33 34 20 5 -4 6 -15
3 -23z m-68 -49 c8 -10 7 -17 -1 -25 -26 -26 -60 -4 -38 23 15 18 24 19 39 2z
m-69 -82 c0 -7 -6 -18 -14 -24 -20 -17 -44 13 -26 33 13 17 40 10 40 -9z m-74
-66 c10 -16 -23 -46 -36 -33 -6 6 -8 18 -4 27 7 19 29 22 40 6z m-70 -70 c3
-6 0 -17 -7 -25 -18 -17 -44 -2 -36 20 7 18 33 21 43 5z"/>
<path d="M3836 3537 c-30 -7 -64 -34 -133 -100 -51 -49 -93 -95 -93 -101 0 -6
88 -99 195 -206 167 -167 198 -193 213 -184 35 22 25 45 -49 120 l-74 74 47
47 47 47 113 -32 c62 -18 120 -32 129 -32 8 0 26 11 39 25 l23 24 -24 9 c-24
9 -50 17 -139 42 -88 24 -84 19 -84 96 -1 61 -4 73 -31 107 -47 58 -112 82
-179 64z m108 -101 c30 -28 36 -40 36 -74 0 -37 -7 -48 -65 -109 l-65 -68 -78
78 -77 78 68 65 c59 56 72 64 106 64 31 0 47 -7 75 -34z"/>
<path d="M1240 3454 c-38 -25 -120 -107 -120 -119 0 -20 117 -127 135 -123 10
1 39 28 66 58 34 40 50 67 55 97 6 38 3 45 -24 73 -35 34 -74 39 -112 14z"/>
<path d="M1425 3291 c-16 -10 -55 -44 -85 -75 l-54 -56 59 -61 c87 -87 85 -87
142 -31 76 74 93 101 93 142 0 81 -85 125 -155 81z"/>
<path d="M2554 2170 c-34 -11 -164 -124 -164 -144 0 -6 70 -81 155 -166 l155
-154 54 53 c120 119 127 215 24 328 -68 73 -153 104 -224 83z"/>
<path d="M2445 4750 l-120 -120 195 -195 c107 -107 199 -195 205 -195 6 0 64
54 130 120 l120 120 -23 22 -22 23 -99 -99 -99 -99 -66 63 c-36 35 -66 67 -66
72 0 5 41 50 91 99 87 87 90 91 73 110 -9 10 -21 19 -25 19 -5 0 -47 -38 -94
-85 -47 -47 -91 -85 -98 -85 -15 0 -117 101 -117 115 0 5 42 51 92 102 79 79
91 96 82 111 -6 9 -17 18 -25 20 -8 1 -68 -52 -134 -118z"/>
<path d="M5081 2245 c-31 -17 -201 -186 -201 -200 0 -6 54 -64 120 -130 l120
-120 0 65 0 64 -61 62 -61 62 18 24 c10 13 37 39 61 57 40 31 43 36 43 82 0
52 -2 54 -39 34z"/>
<path d="M4375 2027 c-25 -24 -45 -48 -45 -54 0 -20 171 -184 188 -181 27 5
25 32 -7 65 -21 23 -26 34 -18 42 14 14 74 15 82 1 11 -17 50 -11 63 10 11 17
10 21 -5 26 -10 3 -26 10 -35 15 -10 5 -27 9 -38 9 -16 0 -20 7 -20 33 0 45
-34 77 -83 77 -30 0 -45 -8 -82 -43z m99 -13 c23 -9 20 -41 -6 -67 l-23 -23
-24 24 -23 23 23 25 c24 26 29 27 53 18z"/>
<path d="M3823 976 c-54 -20 -110 -68 -145 -126 -29 -48 -33 -63 -33 -125 0
-88 26 -145 101 -219 51 -52 106 -84 182 -106 64 -20 142 6 216 71 116 102
118 252 6 367 -49 49 -38 53 -142 -50 -69 -68 -79 -89 -54 -114 24 -23 46 -16
92 31 48 49 50 51 68 33 23 -25 33 -81 21 -122 -14 -47 -85 -115 -124 -118
-65 -4 -107 5 -148 33 -50 35 -103 89 -103 106 0 6 -4 13 -9 15 -9 3 -14 44
-12 109 1 28 10 46 41 78 46 47 72 56 146 48 48 -5 58 -3 82 18 21 19 25 27
17 40 -23 39 -135 55 -202 31z"/>
</g>
</svg>
